<svg version="1.1" id="Layer_1" xmlns="http://www.w3.org/2000/svg" xmlns:xlink="http://www.w3.org/1999/xlink" x="0px" y="0px"
	 width="100%" viewBox="0 0 1024 1024" enable-background="new 0 0 1024 1024" xml:space="preserve">
<path fill="#000000" opacity="1.000000" stroke="none" 
	d="
M322.875702,582.000000 
	C322.868042,536.344788 323.029999,491.188629 322.791992,446.034607 
	C322.645782,418.295502 334.703766,397.068878 356.439362,380.873566 
	C360.202118,378.069855 362.314819,375.294678 361.686066,370.615570 
	C361.510162,369.306610 361.574371,367.945740 361.683899,366.621521 
	C362.117035,361.384369 362.005157,357.393036 354.877472,356.205322 
	C348.688995,355.174133 345.928223,349.245789 345.806732,343.262482 
	C345.492188,327.773041 345.423767,312.265472 345.812988,296.779114 
	C346.108215,285.031982 356.859528,275.712555 369.497833,275.663727 
	C395.151184,275.564575 420.805176,275.637421 446.458679,275.563599 
	C469.603607,275.497009 492.756073,274.890472 515.891235,275.304626 
	C554.872131,276.002411 593.850220,275.155182 632.827087,275.651489 
	C646.046753,275.819824 656.199829,285.825806 656.291504,299.077850 
	C656.390625,313.407013 656.361755,327.737518 656.299500,342.067078 
	C656.265808,349.833038 652.760254,354.490204 645.259094,356.569916 
	C642.425476,357.355530 640.819214,358.635132 641.180359,361.726685 
	C641.218628,362.054108 641.214233,362.401886 641.148682,362.723755 
	C639.130371,372.635193 642.424500,378.798828 651.265991,385.046509 
	C668.931152,397.529236 679.068115,415.717468 679.219238,437.770905 
	C679.627991,497.406982 679.397095,557.047424 679.410034,616.686157 
	C679.414917,638.997437 679.534546,661.309998 679.346252,683.619751 
	C679.108093,711.844666 664.772949,732.086487 642.085327,747.050720 
	C629.552307,755.317383 615.482788,758.522583 600.341064,758.468201 
	C538.193604,758.245056 476.044525,758.326416 413.896667,758.507141 
	C401.574982,758.542908 389.288177,759.364746 377.309784,755.446777 
	C345.563568,745.062866 322.974121,714.292786 322.894592,680.972595 
	C322.816223,648.148560 322.876862,615.324219 322.875702,582.000000 
M354.524078,702.931580 
	C365.180786,722.793274 381.507507,732.820190 404.319366,732.724609 
	C456.649872,732.505371 508.981934,732.618469 561.313232,732.677246 
	C566.968933,732.683594 572.591675,732.206482 578.279236,732.418213 
	C589.907227,732.851074 601.663330,733.744446 613.147034,731.192688 
	C634.796448,726.382141 653.350525,703.902588 653.689209,681.662476 
	C654.115234,653.685486 654.008728,625.699951 654.067810,597.718018 
	C654.120972,572.567932 653.577942,547.404541 654.229614,522.271179 
	C654.934143,495.100403 653.859009,467.967834 653.640320,440.821014 
	C653.482605,421.240356 635.986206,400.985565 616.897400,396.514221 
	C609.127136,394.694092 601.311829,395.449036 593.515442,395.352692 
	C588.604492,395.291992 584.716125,393.911133 582.183594,389.527954 
	C580.333923,386.326630 577.633484,385.184357 573.874329,385.245941 
	C562.211426,385.436981 550.543091,385.290375 538.876831,385.287079 
	C536.526550,385.286407 534.135376,385.283325 532.090454,384.002533 
	C529.844910,382.596100 528.287903,380.561707 528.952332,377.748993 
	C529.559631,375.178040 531.601379,374.004028 534.116455,373.753326 
	C535.603333,373.605133 537.113037,373.665955 538.612488,373.665863 
	C563.945007,373.664032 589.277466,373.667084 614.609985,373.669922 
	C622.128235,373.670746 622.128296,373.672028 622.053040,366.252167 
	C621.961792,357.258362 621.961731,357.270264 613.093750,357.269470 
	C538.929871,357.262970 464.765930,357.252899 390.602020,357.240906 
	C378.683685,357.238983 380.736176,356.187714 380.259247,367.190674 
	C380.043060,372.178131 381.533234,373.819366 386.687317,373.773224 
	C413.184265,373.535919 439.684570,373.666016 466.183685,373.669952 
	C467.683502,373.670166 469.190308,373.600922 470.681732,373.718109 
	C473.852692,373.967255 476.998322,374.832703 477.206116,378.556854 
	C477.425629,382.491058 474.710754,384.526855 471.034180,385.131439 
	C469.404755,385.399353 467.710602,385.321716 466.045929,385.319641 
	C454.546417,385.305267 443.045197,385.371826 431.548309,385.183136 
	C427.683472,385.119720 424.619568,386.036896 422.863251,389.653259 
	C420.582703,394.348969 416.838989,395.564606 411.813385,395.418304 
	C403.669586,395.181244 395.378723,394.258179 387.373505,395.833160 
	C366.753021,399.890198 349.474945,420.623718 349.353790,441.652191 
	C348.916077,517.639648 348.632477,593.628479 348.532379,669.617065 
	C348.517761,680.712708 348.566986,692.030945 354.524078,702.931580 
M383.769257,311.516113 
	C383.737885,308.184784 383.682770,304.853455 383.681702,301.522125 
	C383.680542,297.999878 382.584625,294.814880 378.709076,294.670166 
	C374.333527,294.506836 373.434265,298.102325 373.396973,301.645538 
	C373.298737,310.972870 373.369354,320.301849 373.330505,329.630005 
	C373.316589,332.971954 374.372253,336.145844 377.931030,336.191620 
	C381.683655,336.239868 383.770416,333.507263 383.742554,329.500854 
	C383.703156,323.837769 383.759064,318.174011 383.769257,311.516113 
M479.350433,303.825623 
	C479.356293,312.615204 479.329315,321.405029 479.384338,330.194305 
	C479.405945,333.642548 481.237274,336.231049 484.614258,336.285583 
	C487.490570,336.332001 489.510315,333.874481 489.559570,330.961578 
	C489.736115,320.519135 489.730560,310.070587 489.574036,299.627625 
	C489.533264,296.906250 487.712219,294.847809 484.919617,294.607574 
	C482.034210,294.359375 480.348694,296.275482 479.722473,298.977478 
	C479.427155,300.251617 479.465576,301.603119 479.350433,303.825623 
M584.343872,311.515930 
	C584.361145,317.654785 584.247375,323.797974 584.448608,329.930786 
	C584.555908,333.198242 586.310486,336.160828 589.690491,336.158447 
	C593.114136,336.156067 594.630432,333.266479 594.635376,329.874817 
	C594.649475,320.251373 594.663513,310.627838 594.632324,301.004486 
	C594.621094,297.537170 592.839966,294.945282 589.420898,294.914886 
	C585.869690,294.883301 584.378723,297.637299 584.359253,301.067596 
	C584.341309,304.220001 584.349609,307.372589 584.343872,311.515930 
M408.347565,325.296844 
	C408.349548,326.293335 408.364471,327.290039 408.351166,328.286316 
	C408.300629,332.070496 409.178528,335.981750 413.465881,336.047424 
	C417.752899,336.113068 418.721222,332.373932 418.680023,328.476562 
	C418.586975,319.675232 418.585541,310.871216 418.700714,302.070282 
	C418.750519,298.263092 417.577118,295.016296 413.553558,294.936310 
	C409.441498,294.854614 408.272308,298.131500 408.318237,301.926697 
	C408.408630,309.399353 408.346069,316.873810 408.347565,325.296844 
M453.747375,308.552246 
	C453.758362,306.054626 453.761810,303.556976 453.782166,301.059418 
	C453.808746,297.799408 452.367676,295.315491 449.102173,294.989929 
	C445.680176,294.648773 443.675873,297.297821 443.591309,300.251923 
	C443.305725,310.232147 443.280579,320.231689 443.596954,330.209900 
	C443.690735,333.166901 445.299774,336.437134 449.115265,336.034180 
	C452.590057,335.667236 453.940491,333.010345 453.872803,329.517853 
	C453.743805,322.859039 453.779266,316.197052 453.747375,308.552246 
M559.706726,306.608429 
	C559.701111,305.112854 559.666077,303.616669 559.695679,302.121796 
	C559.766785,298.529694 559.199219,294.993042 554.805054,294.877136 
	C550.688721,294.768524 550.125732,298.400818 549.543823,301.567902 
	C549.424377,302.217712 549.381531,302.889832 549.380310,303.551819 
	C549.365051,312.026855 549.324341,320.502167 549.378540,328.976837 
	C549.400085,332.342499 550.157166,335.685760 554.276917,335.765350 
	C558.499512,335.846954 559.782471,332.859161 559.745178,329.015533 
	C559.675781,321.870636 559.718079,314.724640 559.706726,306.608429 
M629.667542,326.227051 
	C629.676025,317.735992 629.709595,309.244843 629.679810,300.753937 
	C629.669006,297.678192 628.104614,295.571716 625.038147,295.209534 
	C621.727234,294.818420 620.322083,297.167084 619.632568,299.956329 
	C619.358032,301.066986 619.383606,302.267242 619.379822,303.427063 
	C619.354492,311.252350 619.334778,319.077850 619.362000,326.903076 
	C619.375610,330.831207 619.597290,334.977051 624.200623,336.219940 
	C627.234863,337.039154 629.512878,332.966156 629.667542,326.227051 
M515.122681,300.991516 
	C515.080750,301.987000 515.024475,302.982086 514.999084,303.977997 
	C514.791382,312.107666 514.383118,320.240021 514.483765,328.365997 
	C514.526123,331.783203 515.132751,335.903656 519.968506,335.739166 
	C524.416443,335.587860 524.825928,332.036682 524.821777,328.477081 
	C524.810974,319.344147 524.849121,310.211090 524.878296,301.078156 
	C524.888428,297.902222 523.652100,295.180298 520.420288,294.829529 
	C517.096924,294.468811 515.373169,296.809540 515.122681,300.991516 
z"/>
<path fill="#000000" opacity="1.000000" stroke="none" 
	d="
M480.062622,519.497803 
	C470.980225,519.404541 462.314178,519.279724 453.650818,519.382507 
	C450.109222,519.424561 448.436798,518.267151 448.622559,514.483521 
	C448.842957,509.995026 448.804932,505.481384 448.616455,500.989624 
	C448.483490,497.820892 449.775208,496.346313 452.871796,496.296326 
	C461.196869,496.161926 469.522125,496.035339 477.846741,495.877777 
	C480.525604,495.827087 483.195801,495.824158 484.853394,493.042175 
	C487.624023,488.392151 484.597412,482.513733 478.804596,482.238373 
	C471.657227,481.898621 464.480560,482.190369 457.316589,482.181244 
	C448.668304,482.170227 448.551941,482.155426 448.703003,473.775482 
	C448.822784,467.130951 448.024689,460.451080 449.386414,453.843536 
	C453.783234,432.508789 474.895020,414.694427 496.613495,412.490479 
	C521.404236,409.974762 544.421692,427.010040 551.197449,445.668549 
	C553.327209,451.533295 554.293579,457.523499 554.203247,463.760315 
	C554.153687,467.179840 552.781250,468.467560 549.369995,468.399353 
	C541.373962,468.239471 533.372559,468.284546 525.373901,468.339539 
	C520.049744,468.376129 517.368286,470.659546 517.254578,475.018402 
	C517.136902,479.530426 519.558960,481.799591 525.031616,481.845123 
	C532.528992,481.907562 540.033813,481.895721 547.524414,481.618622 
	C551.563904,481.469208 553.544495,482.348938 553.552063,487.027710 
	C553.559570,491.660614 554.097290,496.321655 554.045959,500.990021 
	C554.012207,504.055756 552.747742,505.455780 549.480652,505.386505 
	C541.318237,505.213379 533.150085,505.246155 524.984802,505.295410 
	C519.639221,505.327637 517.242737,507.517944 517.144958,512.187927 
	C517.039856,517.206909 519.474915,519.684082 524.800903,519.721802 
	C532.799438,519.778442 540.801086,519.826172 548.796875,519.660522 
	C552.627686,519.581238 554.320190,521.043518 554.150208,524.927856 
	C553.960876,529.253662 553.989990,533.590393 553.984924,537.922424 
	C553.980835,541.459290 552.306641,543.021729 548.747559,542.917786 
	C540.757507,542.684326 532.760742,542.381531 524.772095,542.492310 
	C518.559082,542.578430 515.508423,547.950439 518.184448,553.297424 
	C519.815857,556.557312 522.670959,556.919861 525.785767,556.890747 
	C533.783875,556.815979 541.782593,556.782043 549.779846,556.656433 
	C552.526245,556.613281 553.995483,557.373596 554.227905,560.539856 
	C556.145020,586.650085 538.578613,609.759338 512.632141,615.043640 
	C485.519684,620.565430 459.142914,606.480103 450.413361,581.818481 
	C447.099762,572.457336 447.644287,571.674072 457.465790,571.675659 
	C464.464996,571.676819 471.464386,571.713135 478.463287,571.667358 
	C482.944183,571.638062 486.248566,568.907959 486.466248,565.199829 
	C486.683411,561.500305 483.088226,557.569092 478.821869,557.453308 
	C470.828247,557.236145 462.816681,557.105347 454.830353,557.408386 
	C449.999634,557.591736 448.236603,555.900146 448.598633,551.107605 
	C448.923950,546.800171 448.749359,542.444519 448.611816,538.116028 
	C448.509338,534.891357 449.916840,533.659668 453.072632,533.689392 
	C461.070709,533.764771 469.072021,533.572083 477.068634,533.699951 
	C481.152008,533.765198 484.523163,532.783142 485.619110,528.506470 
	C486.750275,524.092407 484.657593,521.128113 480.062622,519.497803 
M491.827728,423.282837 
	C475.590027,428.278534 464.033295,437.940582 460.018890,455.146057 
	C459.372742,457.915466 458.125885,461.352295 461.878113,462.278473 
	C465.258545,463.112946 465.368835,459.429901 465.990509,457.180878 
	C467.941711,450.122040 471.398224,444.011383 476.622192,438.843994 
	C484.357178,431.192719 493.981873,428.082397 504.467133,426.874878 
	C506.029877,426.694855 508.279877,426.975647 508.335938,424.678528 
	C508.392212,422.373108 506.207886,421.826111 504.419983,421.595154 
	C500.389557,421.074493 496.511169,422.256866 491.827728,423.282837 
z"/>
<path fill="#000000" opacity="1.000000" stroke="none" 
	d="
M569.069824,709.016113 
	C565.362122,712.385925 561.161316,713.202515 556.737000,713.205872 
	C518.911682,713.234619 481.086334,713.260376 443.260986,713.236389 
	C436.287872,713.231934 431.155548,708.659607 430.679108,702.303955 
	C430.063232,694.088318 433.487274,689.460938 441.540436,688.543945 
	C454.316956,687.089111 467.168488,688.097595 479.985107,687.867371 
	C487.713715,687.728577 487.719360,687.797119 487.753387,680.117310 
	C487.771118,676.118164 487.520538,672.098511 487.846405,668.125427 
	C488.184357,664.004761 486.644165,662.241394 482.562347,661.433228 
	C462.978424,657.555786 446.471344,648.037720 433.149597,633.209229 
	C417.034241,615.271057 408.186920,594.595337 409.260010,570.002625 
	C409.731079,559.206604 408.926239,548.360718 408.970001,537.538574 
	C409.007263,528.313660 412.354736,523.516479 419.561340,521.475708 
	C426.661224,519.465149 433.452362,523.396240 435.338928,530.589111 
	C436.018494,533.180054 436.341553,535.792786 436.322510,538.483276 
	C436.242432,549.813782 436.819702,561.182556 436.088379,572.468079 
	C434.385712,598.742798 455.304382,624.318542 478.292053,632.715881 
	C514.299866,645.869324 552.774292,626.871887 563.847351,590.091431 
	C565.190857,585.628784 565.744263,580.982788 565.744751,576.297180 
	C565.745972,564.633057 565.757141,552.968933 565.746277,541.304810 
	C565.743591,538.469238 565.941528,535.682739 566.488281,532.873047 
	C568.051086,524.841858 572.723755,520.744751 580.055176,521.276306 
	C587.795837,521.837524 591.882507,526.120117 592.358765,534.200928 
	C593.447205,552.670288 594.799011,571.405212 591.219482,589.488159 
	C584.185364,625.023071 562.349487,648.324707 527.596252,658.925293 
	C514.449341,662.935486 514.318420,662.506287 514.311035,676.401794 
	C514.304810,688.113159 514.304810,688.115906 526.021362,688.021362 
	C536.518494,687.936584 547.019226,687.637695 557.511780,687.816589 
	C567.321167,687.983826 572.604126,693.174255 572.359070,701.530762 
	C572.275269,704.391235 571.057556,706.633423 569.069824,709.016113 
z"/>
</svg>